# xmcd
#
# Track frame offsets:
#	150
#	14369
#	30227
#	49250
#	61958
#	85091
#	104633
#	120755
#	133885
#	164328
#	184017
#	206966
#	221791
#
# Disc length: 3485 seconds
#
# Revision: 7
# Processed by: cddbd v1.5.2PL0 Copyright (c) Steve Scherf et al.
# Submitted via: audiograbber 1.83.01
#
DISCID=b60d9b0d
DTITLE=Stefan Gwildis - Neues Spiel
DYEAR=2003
DGENRE=Blues
TTITLE0=Allem Anschein nach bist du's (Ain't No Sunshine)
TTITLE1=Immer weiter (Soul Shadows)
TTITLE2=Sie ist so süß (, wenn sie da liegt und schläft) (How Sweet It Is (To B
TTITLE2=e Loved By You))
TTITLE3=Mitten vor'm Dock Nr.10 (Sittin' On The Dock Of The Bay)
TTITLE4=Sie läßt mich nicht mehr los (Me And Mrs. Jones)
TTITLE5=Wem bringt das was? (What's Going On)
TTITLE6=Schön, schön, schön (Chain Of Fools)
TTITLE7=Wirklich nicht fair (Family Affair)
TTITLE8=Papa will da nicht mehr wohn' (Papa Was A Rolling Stone)
TTITLE9=Laß ma' ruhig den Hut auf (You Can Leave Your Hat On)
TTITLE10=Que será, será
TTITLE11=Warum komm ich nur so selten dazu? (Have I Told You  Lately?)
TTITLE12=Laß mich nicht allein heut' Nacht (Have A Little Faith In Me)
EXTD=YEAR: 2003
EXTT0=
EXTT1=
EXTT2=
EXTT3=
EXTT4=
EXTT5=
EXTT6=
EXTT7=
EXTT8=
EXTT9=
EXTT10=
EXTT11=
EXTT12=
PLAYORDER=
